<?xml version="1.0" encoding="UTF-8"?>
<!DOCTYPE svg PUBLIC "-//W3C//DTD SVG 1.1//EN" "http://www.w3.org/Graphics/SVG/1.1/DTD/svg11.dtd">
<svg xmlns="http://www.w3.org/2000/svg">
    <symbol id="icon-arr-left" viewBox="0 0 25.336 31.994">
        <path d="M20.944.987v30L1.506 16.241l-.335-.254-.335-.254L20.944.987z" />
        <path d="M24.836 5.362v21.25L11.042 16.167l-.238-.18L24.836 5.362z" />
    </symbol>
    <symbol id="icon-arr-right" viewBox="0 0 25.336 31.994">
        <path d="M24.5 15.733l-.335.254-.335.254L4.392 30.987v-30L24.5 15.733z" />
        <path d="M14.532 15.987l-.238.18L.5 26.612V5.362l14.032 10.625z" />
    </symbol>
    <symbol id="icon-arr" viewBox="0 0 32.514 67.434">
        <path stroke-miterlimit="10" d="M1.017 46.5h30.5l-15 20.107z" />
        <path stroke-miterlimit="10" d="M5.017 42.5h22.125L16.517 57.146z" />
        <path stroke-miterlimit="10" d="M16.517 0v66" />
    </symbol>
    <symbol id="icon-behance" viewBox="0 0 32 20">
        <g>
            <path d="M12.914 9.272s3.027-.23 3.027-3.852c0-3.619-2.053-5.403-5.191-5.403L0 0v20h11s5.5.174 5.5-6c0 0 .404-4.728-3.586-4.728zM4 3h5.5s1.882.031 1.882 2.471C11.382 8 9.5 8 9.5 8H4V3zm6 14H4v-6h6s3 .031 3 3-2.568 3-3 3z" />
            <path d="M25 5c-7.513 0-7.5 7.5-7.5 7.5S17 20 25 20c0 0 7 0 7-6h-4s0 3-3 3c0 0-3 0-3-4h10c0-2 0-8-7-8zm-3 6s-.066-3 3-3c3.065 0 3 3 3 3h-6z" />
            <path d="M21 2h8v2h-8z" />
        </g>
    </symbol>
    <symbol id="icon-close" viewBox="0 0 33.696 33.696">
        <path d="M33.696 31.582L32.3 32.978 17.216 17.894 1.414 33.696 0 32.282 15.802 16.48.718 1.396 2.114 0l15.084 15.084L32 .282l1.414 1.414-14.802 14.802 15.084 15.084z" />
    </symbol>
    <symbol id="icon-linkedin" viewBox="0 0 27.793 27.669">
        <title/>
        <path d="M5.83 27.669V9.37H.174v18.299H5.83zm0-24.785C5.797 1.247 4.705 0 2.932 0 1.159 0 0 1.247 0 2.884c0 1.602 1.125 2.885 2.864 2.885h.034c1.807 0 2.932-1.283 2.932-2.885zm9.227 24.785V17.244c0-.558.04-1.116.204-1.514.449-1.115 1.47-2.27 3.184-2.27 2.246 0 3.654 1.274 3.654 3.784V27.67h5.694V16.965c0-5.734-3.061-8.403-7.144-8.403-3.348 0-4.817 1.872-5.633 3.146l.041-2.447H9.373c.082 1.752 0 18.409 0 18.409h5.684z" />
    </symbol>
    <symbol id="icon-logo" viewBox="0 0 760 750">
        <path d="M331.964,229.768c0,37.732,0,74.914,0,112.384
        c10.724,0,21.217,0,32.137,0c0-26.441,0-52.765,0-79.635c1.969-0.092,3.548-0.226,5.126-0.231
        c14.634-0.048,29.267-0.05,43.899-0.114c25.532-0.112,46.584,19.483,48.38,46.572c1.639,24.713-15.824,45.808-39.761,50.272
        c-3.978,0.742-8.084,1.111-12.133,1.12c-30.623,0.06-61.246-0.012-91.869-0.053c-0.893-0.001-1.786-0.109-3.337-0.21
        c0-24.815,0-49.583,0-74.626c-34.979,0-69.295,0-104.162,0c0,24.192,0,48.376,0,72.841c-16.62,0-32.692,0-49.23,0
        c0-24.154,0-48.331,0-72.941c-39.45,0-78.439,0-117.828,0c0-24.594,0-48.75,0-73.393c1.7,0,3.318,0,4.937,0
        c91.875,0,183.75-0.027,275.626,0.015c30.618,0.014,61.241,0.461,91.857,0.245c27.697-0.196,51.674,8.699,71.788,27.741
        c9.858,9.335,17.171,20.512,22.639,33.081c3.907-6.1,7.335-12.209,11.487-17.778c11.158-14.97,25.893-25.425,43.068-32.426
        c39.334-16.034,78.131-14.78,116.168,4.276c13.227,6.627,27.965,19.048,34.064,28.18c-11.111,8.885-22.256,17.798-33.496,26.786
        c-3.295-4.219-6.193-8.833-9.953-12.587c-15.527-15.507-34.791-21.39-56.318-20.926c-11.623,0.251-22.539,3.332-33.033,8.258
        c-1.191,0.559-3.475,0.15-4.578-0.692c-6.227-4.754-12.313-9.701-18.301-14.755c-1.965-1.657-3.484-1.843-5.506-0.245
        c-3.758,2.967-7.641,5.775-11.871,8.949c8.021,6.454,15.512,12.48,22.883,18.411c-3.537,5.378-7.771,10.253-10.262,15.898
        c-7.822,17.742-5.336,34.372,7.104,49.363c12.439,14.988,28.785,22.5,47.865,23.938c20.916,1.577,40.484,7.231,58.762,17.456
        c1.164,0.652,2.223,1.494,3.844,2.596c-7.846,6.169-15.438,12.138-23.309,18.325c4.43,3.485,8.432,6.857,12.725,9.807
        c0.814,0.561,3.098-0.149,4.166-0.971c6.928-5.325,13.703-10.842,21.563-17.12c5.176,6.714,10.75,12.972,15.234,19.932
        c18.107,28.108,16.502,62.589-3.715,89.256c-16.084,21.214-37.77,33.782-63.174,40.076c-37.26,9.23-72.699,4.438-105.627-15.69
        c-9.787-5.981-17.873-14.11-25.747-23.146c11.479-9.252,22.601-18.213,33.843-27.274c3.441,4.365,6.443,9.07,10.305,12.913
        c15.443,15.362,34.551,21.126,55.943,20.633c11.646-0.269,22.523-3.303,33.021-8.2c1.289-0.6,3.785-0.021,5.02,0.924
        c5.859,4.486,11.617,9.131,17.119,14.047c2.818,2.52,5.014,2.54,7.777,0.186c3.293-2.807,6.775-5.392,10.537-8.355
        c-8.02-6.453-15.504-12.472-23.283-18.729c2.254-2.964,4.48-5.568,6.355-8.401c10.604-16.022,12.107-32.943,2.164-49.422
        c-11.791-19.542-30.309-29.432-52.787-30.961c-22.553-1.535-43.26-8.085-63.176-19.867c8.043-6.362,15.746-12.454,23.699-18.746
        c-4.914-3.747-9.434-7.192-14.193-10.82c-7.779,6.167-15.637,12.397-24.367,19.322c-6.48-8.31-12.723-16.312-19.117-24.511
        c-0.346,0.813-0.887,1.922-1.299,3.077c-14.219,39.709-52.04,65.845-94.348,65.273c-10.408-0.142-20.819-0.032-31.23-0.013
        c-1.165,0.003-2.331,0.167-4.069,0.301c0,43.897,0,87.583,0,131.555c-113.21,0-225.827,0-338.825,0c0-24.145,0-48.198,0-72.808
        c38.961,0,78.085,0,117.504,0c0-24.629,0-48.707,0-73.152c16.442,0,32.633,0,49.379,0c0,24.092,0,48.274,0,72.7
        c34.88,0,69.209,0,104.098,0c0-25.342,0-50.596,0-76.627c4.726,0,8.903-0.01,13.082,0.001c31.67,0.087,63.338,0.156,95.008,0.273
        c33.906,0.127,66.669-26.52,75.125-61.154c11.879-48.656-21.815-95.802-71.659-100.228c-2.397-0.213-4.821-0.166-7.234-0.167
        C389.813,229.764,361.158,229.768,331.964,229.768z M313.975,486.028c-39.554,0-78.494,0-117.874,0c0-24.618,0-48.692,0-72.926
        c-7.306,0-14.165,0-21.103,0c0,36.523,0,72.767,0,109.347c2.169,0,3.959,0,5.749,0c27.752,0,55.504,0,83.255,0
        c15.234,0,30.467-0.008,45.7,0.007c2.171,0.001,4.313,0.244,4.295-3.017C313.937,508.601,313.975,497.758,313.975,486.028z
         M175.063,266.392c0,24.703,0,48.909,0,73.267c7.131,0,13.833,0,20.691,0c0-36.349,0-72.413,0-108.74c-46.272,0-92.175,0-138.235,0
        c0,11.903,0,23.572,0,35.474C96.613,266.392,135.442,266.392,175.063,266.392z M57.262,486.421c0,12.131,0,23.813,0,35.637
        c34.679,0,69.068,0,103.561,0c0-12.034,0-23.706,0-35.637C126.24,486.421,91.954,486.421,57.262,486.421z M313.226,266.217
        c0-11.871,0-23.523,0-35.255c-34.399,0-68.518,0-102.773,0c0,11.854,0,23.41,0,35.255
        C244.76,266.217,278.889,266.217,313.226,266.217z M363.899,520.801c0-37.388,0-74.475,0-111.504c-10.806,0-21.265,0-31.836,0
        c0,37.289,0,74.255,0,111.713c9.304,0,18.304,0.008,27.304-0.011C360.835,520.996,362.302,520.874,363.899,520.801z
         M382.21,342.256c10.94,0,21.337,0.125,31.729-0.029c16.867-0.25,30.416-14.45,30.164-31.405
        c-0.257-17.147-13.872-31.003-30.624-31.09c-8.746-0.045-17.494,0.034-26.24,0.056c-1.615,0.003-3.232,0-5.029,0
        C382.21,300.818,382.21,321.267,382.21,342.256z M652.152,519.528c-4.262-3.381-8.113-6.245-11.732-9.378
        c-2.227-1.929-4.205-1.938-6.973-1.088c-35.568,10.912-68.082,6.577-96.158-19.589c-0.789-0.733-2.951-1.134-3.674-0.603
        c-4.223,3.104-8.209,6.532-12.277,9.856C548.676,530.021,607.055,541.553,652.152,519.528z M697.727,254.148
        c-20.271-30.606-101.459-43.467-129.764-20.555c3.186,2.589,6.48,4.959,9.404,7.723c3.094,2.928,6.012,3.081,10.107,1.831
        c30.715-9.369,59.725-6.273,86.195,12.912c3.625,2.627,6.824,5.843,10.359,8.91c0.891-0.616,1.771-1.149,2.568-1.79
        C690.332,260.177,694.043,257.144,697.727,254.148z M534.154,258.454c-22.495,25.266-22.43,62.891-1.633,88.372
        c0.586,0.717,2.896,1,3.648,0.451c4.336-3.171,8.449-6.653,12.738-10.112c-15.486-22.512-15.379-44.875-0.457-67.381
        c-3.867-3.185-7.436-6.157-11.047-9.077C536.375,259.873,535.225,259.188,534.154,258.454z M684.832,494.373
        c24.381-26.368,21.488-68.071-0.193-90.209c-4.637,3.727-9.297,7.472-14.135,11.36c15.486,22.469,15.279,44.846,0.365,67.493
        C675.537,486.816,680.068,490.498,684.832,494.373z M651.834,378.811c-11.455-5.286-22.594-8.777-34.283-9.812
        c-11.135-0.986-22.133-2.193-32.742-5.948c-1.244-0.441-3.229-0.487-4.182,0.217c-4.539,3.355-8.84,7.034-13.67,10.958
        c11.301,4.878,22.199,8.769,33.867,9.591c11.434,0.805,22.76,1.82,33.648,5.758c1.18,0.428,3.096,0.236,4.092-0.475
        C642.824,386.055,646.869,382.708,651.834,378.811z" />
    </symbol>
    <symbol id="icon-message" viewBox="0 0 16 11">
        <path d="M16 1.049V.988a.995.995 0 0 0-.293-.678l-.022-.021s-.021 0-.021-.021c-.043-.041-.084-.06-.127-.102-.021 0-.021-.021-.042-.021-.043-.021-.105-.042-.148-.061-.022 0-.022-.021-.043-.021a.607.607 0 0 0-.188-.042h-.043c-.062 0-.148-.021-.232-.021H1.135c-.083 0-.167 0-.252.021-.022 0-.043 0-.063.021C.758.063.694.063.653.084.632.084.632.105.61.105.568.126.505.147.463.166l-.022.02C.398.208.358.247.315.268L.253.329A.96.96 0 0 0 0 .885v9.232a.988.988 0 0 0 .398.677c.189.125.42.206.692.206h13.816c.062 0 .147 0 .21-.021h.042c.063-.021.127-.021.167-.042h.022a.95.95 0 0 0 .651-.925V1.11v-.042C16 1.07 16 1.07 16 1.049zM14.657.761l-6.613 6.31-1.513-1.439L1.345.76l13.312.001zM.779 9.828V1.275L5.67 5.88.779 9.828zm7.055.43H1.472l4.766-3.824 1.532 1.46c.062.061.126.081.188.102h.128c.063-.021.148-.041.189-.102l1.448-1.379 4.786 3.743H7.834zm7.388-.411L10.31 5.962l4.912-4.687v8.572z" />
    </symbol>
    <symbol id="icon-quote" viewBox="0 0 26.1 33">
        <path d="M17.9 33l8.3-33H11.7L0 33h17.9z" />
    </symbol>
    <symbol id="icon-github" viewBox="0 0 512 512">
        <path d="M256,0C114.615,0,0,114.615,0,256s114.615,256,256,256s256-114.615,256-256S397.385,0,256,0z M408.027,408.027
        c-19.76,19.759-42.756,35.267-68.354,46.094c-6.502,2.75-13.105,5.164-19.801,7.246V423c0-20.167-6.916-35-20.75-44.5
        c8.668-0.833,16.625-2,23.875-3.5s14.918-3.667,23-6.5c8.084-2.833,15.334-6.208,21.75-10.125c6.418-3.917,12.584-9,18.5-15.25
        c5.918-6.25,10.875-13.333,14.875-21.25s7.168-17.417,9.5-28.5c2.334-11.083,3.5-23.292,3.5-36.625c0-25.833-8.416-47.833-25.25-66
        c7.668-20,6.834-41.75-2.5-65.25l-6.25-0.75c-4.332-0.5-12.125,1.333-23.375,5.5s-23.875,11-37.875,20.5
        c-19.832-5.5-40.416-8.25-61.749-8.25c-21.5,0-42,2.75-61.5,8.25c-8.833-6-17.208-10.958-25.125-14.875s-14.25-6.583-19-8
        s-9.167-2.292-13.25-2.625s-6.708-0.417-7.875-0.25s-2,0.333-2.5,0.5c-9.333,23.667-10.167,45.417-2.5,65.25
        c-16.833,18.167-25.25,40.167-25.25,66c0,13.333,1.167,25.542,3.5,36.625s5.5,20.583,9.5,28.5s8.958,15,14.875,21.25
        s12.083,11.333,18.5,15.25s13.667,7.292,21.75,10.125s15.75,5,23,6.5s15.208,2.667,23.875,3.5c-13.667,9.333-20.5,24.167-20.5,44.5
        v39.115c-7.549-2.247-14.99-4.902-22.3-7.994c-25.597-10.827-48.594-26.335-68.353-46.094
        c-19.758-19.758-35.267-42.756-46.093-68.354C46.679,313.195,41,285.043,41,256s5.679-57.195,16.879-83.675
        c10.827-25.597,26.335-48.594,46.093-68.353c19.758-19.759,42.756-35.267,68.353-46.093C198.805,46.679,226.957,41,256,41
        s57.195,5.679,83.676,16.879c25.598,10.827,48.594,26.335,68.354,46.093c19.758,19.758,35.266,42.756,46.092,68.353
        C465.32,198.805,471,226.957,471,256s-5.68,57.195-16.879,83.675C443.295,365.271,427.785,388.27,408.027,408.027z" />
    </symbol>
 <symbol id="icon-resume" viewBox="0 0 181.167 181.167">
        <g>
            <path d="M148.556,0H32.613c-9.994,0-18.121,8.126-18.121,18.115v144.94c0,9.986,8.126,18.111,18.121,18.111h115.943    c9.992,0,18.118-8.125,18.118-18.111V18.121C166.679,8.131,158.554,0,148.556,0z M159.431,163.055    c0,5.996-4.878,10.871-10.875,10.871H32.613c-5.995,0-10.87-4.875-10.87-10.871V18.121c0-5.995,4.875-10.87,10.87-10.87h115.943    c5.992,0,10.867,4.875,10.867,10.87v144.935H159.431z" />
            <path d="M128.792,79.212H52.384c-1.839,0-3.324,1.491-3.324,3.33c0,1.838,1.485,3.33,3.324,3.33h76.407    c1.841,0,3.326-1.491,3.326-3.33C132.118,80.704,130.632,79.212,128.792,79.212z" />
            <path d="M128.792,94.386H52.384c-1.839,0-3.324,1.494-3.324,3.333s1.485,3.326,3.324,3.326h76.407    c1.841,0,3.326-1.487,3.326-3.326C132.113,95.87,130.632,94.386,128.792,94.386z" />
            <path d="M128.792,109.555H52.384c-1.839,0-3.324,1.494-3.324,3.331c0,1.839,1.485,3.328,3.324,3.328h76.407    c1.841,0,3.326-1.489,3.326-3.328C132.118,111.049,130.632,109.555,128.792,109.555z" />
            <path d="M128.792,124.728H90.585c-1.836,0-3.328,1.488-3.328,3.327s1.492,3.333,3.328,3.333h38.206    c1.841,0,3.321-1.494,3.321-3.333S130.632,124.728,128.792,124.728z" />
            <path d="M128.792,154.693h-26.747c-1.845,0-3.326,1.489-3.326,3.328c0,1.837,1.481,3.326,3.326,3.326h26.747    c1.841,0,3.321-1.489,3.321-3.326C132.113,156.182,130.632,154.693,128.792,154.693z" />
            <path d="M94.296,64.583c0-6.298-7.251-14.793-17.039-17.275c4.089-2.75,6.907-8.181,6.907-13.072    c0-6.898-5.586-12.496-12.49-12.496c-6.896,0-12.49,5.598-12.49,12.496c0,4.886,2.818,10.317,6.898,13.072    c-9.774,2.481-17.03,10.982-17.03,17.275C49.06,72.025,94.296,72.025,94.296,64.583z M70.667,50.933H70.61l-2.068-2.375    c1.011,0.358,2.042,0.577,3.133,0.577c1.093,0,2.125-0.213,3.134-0.572l-2.074,2.369h-0.049l5.337,12.895l-6.348,6.332    l-6.341-6.332L70.667,50.933z" />
        </g>
    </symbol>    
</svg>
